# xmcd
#
# Track frame offsets:
#	150
#	14257
#	28411
#	43888
#	83342
#	116631
#	139621
#	162127
#	213972
#	243777
#	274030
#
# Disc length: 4202 seconds
#
# Revision: 0
# Processed by: cddbd v1.5.1PL2 Copyright (c) Steve Scherf et al.
# Submitted via: dBpowerAMP V4.0
#
DISCID=8a10680b
DTITLE=Clear Blue Sky - Out Of The Blue - Live and Unreleased
DYEAR=1900
DGENRE=Blues
TTITLE0=Man Of Stone
TTITLE1=New Dream
TTITLE2=Spooky
TTITLE3=Will You Lie
TTITLE4=Veil Of The Vixen
TTITLE5=Taxman
TTITLE6=Joanna
TTITLE7=Journey
TTITLE8=Mystify
TTITLE9=Destiny
TTITLE10=My Heaven
EXTD=
EXTT0=
EXTT1=
EXTT2=
EXTT3=
EXTT4=
EXTT5=
EXTT6=
EXTT7=
EXTT8=
EXTT9=
EXTT10=
PLAYORDER=
